<?xml version="1.0" encoding="utf-8"?>
<!-- Generator: Adobe Illustrator 21.0.0, SVG Export Plug-In . SVG Version: 6.00 Build 0)  -->
<svg version="1.1" id="Layer_1" xmlns="http://www.w3.org/2000/svg" xmlns:xlink="http://www.w3.org/1999/xlink" x="0px" y="0px"
	 viewBox="0 0 326 133" style="enable-background:new 0 0 326 133;" xml:space="preserve">
<style type="text/css">
	.st0{fill:#FFFFFF;}
</style>
<g>
	<path class="st0" d="M63.9,63.5c0,3-0.4,5.8-1.2,8.2c-0.8,2.5-1.9,4.6-3.4,6.4c-1.5,1.8-3.3,3.1-5.5,4.1c-2.2,1-4.7,1.4-7.5,1.4
		c-3,0-5.6-0.6-7.7-1.8c-2.2-1.2-4-2.7-5.4-4.6c-1.4-1.9-2.5-4.1-3.1-6.4c-0.7-2.4-1-4.8-1-7.2c0-1.3,0.1-2.8,0.3-4.4
		c0.2-1.6,0.5-3.3,1-5c0.5-1.8,1.2-3.5,2.1-5.3c0.9-1.8,2-3.5,3.5-5.1c0.8-1.7,1.9-3,3.2-3.9c1.3-0.9,2.8-1.3,4.4-1.3
		c0.5,0,1,0.1,1.5,0.2c0.5,0.1,1,0.3,1.5,0.5c0.6,0.2,1.2,0.4,2,0.5c0.7,0.2,1.6,0.3,2.7,0.4c2.2,0.1,4,1,5.6,2.4
		c1.6,1.5,2.9,3.3,4,5.6c1.1,2.2,1.8,4.7,2.4,7.4C63.6,58.2,63.9,60.8,63.9,63.5z M58.3,62.2c0-0.8-0.1-1.9-0.2-3.2
		c-0.1-1.3-0.3-2.7-0.6-4.1c-0.3-1.4-0.7-2.9-1.3-4.4c-0.5-1.5-1.2-2.8-2-4c-0.8-1.2-1.8-2.1-2.9-2.9c-1.1-0.7-2.4-1.1-3.9-1.1
		c-1.1,0-2,0.2-2.8,0.7c-0.7,0.5-1.3,1.1-1.8,1.8c-0.5,0.7-0.8,1.6-1,2.5c-0.2,0.9-0.3,1.8-0.3,2.7c0,1.2,0.2,2.4,0.6,3.5
		c0.4,1.1,1,2.1,1.8,2.9c0.8,0.8,1.7,1.5,2.7,1.9c1.1,0.5,2.2,0.7,3.4,0.7c0.9,0,1.7-0.2,2.4-0.6c0.8-0.4,1.3-0.9,1.7-1.4
		c0.1,0.5,0.2,1,0.4,1.4c0.2,0.4,0.3,0.7,0.3,0.9c0,0.6-0.3,1.1-0.9,1.5c-0.6,0.4-1.3,0.7-2.1,0.9c-0.8,0.2-1.5,0.4-2.3,0.4
		c-0.7,0.1-1.3,0.1-1.6,0.1c-1,0-2.1-0.2-3.2-0.5s-2.3-0.9-3.3-1.6c-1.1-0.7-2-1.6-2.9-2.6c-0.8-1.1-1.5-2.3-1.8-3.7
		c-0.5,1.5-0.9,3.1-1,4.6c-0.1,1.6-0.2,3-0.2,4.4c0,1.8,0.1,3.6,0.4,5.5c0.3,1.9,0.8,3.7,1.7,5.3c0.8,1.6,2,3,3.6,4
		c1.6,1.1,3.6,1.6,6.2,1.6c2.4,0,4.3-0.6,5.7-1.9c1.4-1.2,2.5-2.8,3.3-4.5c0.8-1.8,1.3-3.7,1.5-5.7C58.2,65.4,58.3,63.7,58.3,62.2z"
		/>
	<path class="st0" d="M104.2,58.6c0.1,0.3,0.2,0.7,0.2,1.2c0,0.6-0.2,1.2-0.6,1.9c-0.4,0.6-1,1.2-1.7,1.7c-0.7,0.5-1.5,0.9-2.3,1.3
		c-0.9,0.3-1.8,0.6-2.7,0.6c0,0.5-0.1,1.3-0.3,2.3c-0.1,1-0.3,2.2-0.6,3.5c-0.3,1.3-0.6,2.6-1,3.9c-0.4,1.3-0.9,2.5-1.5,3.6
		c-0.6,1.1-1.3,2-2.1,2.7c-0.8,0.7-1.7,1-2.8,1c-0.8,0-1.6-0.2-2.4-0.7c-0.8-0.5-1.5-1-2.2-1.8c-0.7-0.7-1.3-1.5-1.8-2.4
		c-0.5-0.9-0.9-1.8-1.2-2.7c-0.2,0.6-0.5,1.5-0.8,2.6c-0.3,1.1-0.8,2.2-1.3,3.3c-0.6,1.1-1.2,2.1-2,2.9c-0.8,0.8-1.7,1.2-2.8,1.2
		c-0.9,0-1.9-0.2-3.1-0.5c-1.2-0.3-2.1-0.8-2.6-1.5c-0.3-0.4-0.6-1.2-0.9-2.2c-0.2-1-0.4-2.1-0.6-3.2c-0.1-1.1-0.3-2.2-0.3-3.2
		c-0.1-1-0.1-1.7-0.1-2.1v-3.5c0-0.6,0-1.6,0.1-3c0.1-1.4,0.2-2.9,0.3-4.5c0.1-1.6,0.2-3,0.4-4.3c0.1-1.3,0.2-2.1,0.3-2.4
		c0.1-0.2,0.3-0.4,0.7-0.5C68.7,54,69,54,69.2,54c0.2,0,0.6,0,1.2,0.1c0.6,0.1,1.2,0.2,1.7,0.3c0.6,0.1,1.1,0.3,1.5,0.5
		c0.5,0.2,0.7,0.4,0.7,0.6c0,0.1,0,0.2-0.3,0.4c-0.2,0.2-0.4,0.5-0.5,1c-0.1,0.6-0.2,1.5-0.4,2.7c-0.1,1.2-0.3,2.6-0.4,4.1
		c-0.1,1.5-0.3,3.1-0.4,4.8c-0.1,1.7-0.1,3.3-0.1,4.8c0,2.2,0.1,4,0.4,5.4c0.3,1.5,0.8,2.2,1.5,2.2c0.4,0,0.8-0.4,1.2-1.3
		c0.4-0.8,0.8-1.8,1.2-3c0.4-1.1,0.7-2.2,1-3.3c0.3-1.1,0.4-1.9,0.5-2.4c0.1-0.6,0.3-1.7,0.5-3.1c0.2-1.5,0.4-3.1,0.4-4.9
		c0-0.7,0-1.2,0-1.5c0-0.3,0-0.6,0-0.8c0-0.2,0-0.3,0-0.4c0-0.1,0-0.2,0-0.4c0-0.5,0.1-0.8,0.4-0.9c0.3-0.1,0.6-0.1,1.1-0.1
		c0.5,0,1,0,1.6,0.1c0.6,0.1,1.2,0.2,1.7,0.4c0.5,0.1,1,0.3,1.4,0.4c0.4,0.1,0.6,0.3,0.7,0.4v5.8c0,0.6,0,1.7,0.1,3.1
		c0,1.5,0.2,2.9,0.4,4.4c0.2,1.5,0.5,2.8,0.9,3.9c0.4,1.1,0.9,1.7,1.5,1.7c0.4,0,0.8-0.3,1.2-1c0.4-0.6,0.7-1.5,1-2.4
		c0.3-1,0.6-2.1,0.8-3.2c0.2-1.2,0.4-2.3,0.6-3.3c0.2-1,0.3-1.9,0.4-2.6c0.1-0.7,0.1-1.1,0.1-1.1c0-0.2-0.1-0.5-0.4-0.6
		c-0.3-0.2-0.6-0.5-1-0.8c-0.4-0.3-0.7-0.8-1-1.4s-0.4-1.4-0.4-2.4c0-0.7,0.1-1.4,0.3-2.3c0.2-0.8,0.4-1.6,0.6-2.3
		c0.3-0.7,0.6-1.3,0.9-1.8c0.4-0.5,0.8-0.8,1.2-0.8c0.6,0,1.1,0.1,1.7,0.2c0.5,0.1,1,0.4,1.4,0.9c0.4,0.4,0.7,1,0.9,1.8
		c0.2,0.7,0.3,1.7,0.3,2.8v3c1.1,0,2.2-0.3,3.3-0.8c1.1-0.5,2.2-1.3,3.2-2.5C103.9,58.3,104.1,58.4,104.2,58.6z"/>
	<path class="st0" d="M131.3,74.8c-0.1,0.7-0.3,1.5-0.7,2.4c-0.4,0.9-0.9,1.8-1.5,2.6c-0.6,0.8-1.3,1.5-2.1,2.1
		c-0.8,0.6-1.7,0.9-2.6,0.9c-1.4,0-2.7-0.6-3.8-1.7c-1.1-1.1-1.7-2.7-2-4.7c-0.3,0.8-0.6,1.7-1,2.7c-0.4,1-0.9,1.9-1.4,2.8
		c-0.6,0.9-1.2,1.6-2,2.2c-0.7,0.6-1.6,0.9-2.6,0.9c-0.3,0-0.5,0-0.6-0.1c-0.1,0-0.3-0.1-0.5-0.2c-0.2-0.1-0.4-0.1-0.6-0.2
		c-0.2,0-0.5-0.1-0.9-0.1c-1.2,0-2.1-0.4-2.9-1.1c-0.8-0.7-1.4-1.7-1.9-2.8c-0.5-1.2-0.8-2.4-1-3.8c-0.2-1.4-0.3-2.7-0.3-3.9
		c0-2.9,0.2-5.6,0.5-8.2c0.3-2.6,0.8-4.9,1.5-6.9c0.7-2,1.7-3.6,2.8-4.8c1.2-1.2,2.5-1.8,4.2-1.8c1,0,1.7,0.1,2.2,0.3
		c0.5,0.2,1,0.4,1.4,0.6c0.4,0.2,0.9,0.4,1.4,0.7c0.5,0.2,1.2,0.4,2.1,0.6c1,0.6,1.7,1.3,2.1,2.1c0.4,0.8,0.7,1.6,0.8,2.6
		c0.1,0.9,0.2,1.9,0.1,2.8c0,1,0,2,0.1,2.9c0,0,0.1,0.1,0.3,0.2c0.2,0.1,0.5,0.2,0.8,0.3c0.3,0.1,0.5,0.3,0.8,0.5
		c0.2,0.2,0.3,0.5,0.3,0.8V66c-0.5,1.2-0.8,2.4-0.9,3.3c-0.1,1-0.1,2.1-0.1,3.5c0,0.7,0,1.4,0.1,2.2c0.1,0.8,0.2,1.5,0.4,2.2
		c0.2,0.7,0.4,1.3,0.8,1.7c0.3,0.5,0.8,0.7,1.3,0.7c0.6,0,1.1-0.3,1.5-0.9c0.5-0.6,0.8-1.2,1.2-2c0.3-0.7,0.6-1.5,0.8-2.3
		c0.2-0.8,0.3-1.3,0.4-1.7c0.1-0.6,0.3-0.9,0.7-0.9c0.2,0,0.5,0.1,0.7,0.4c0.2,0.3,0.3,0.7,0.3,1.4c0,0.2,0,0.4,0,0.5
		C131.3,74.4,131.3,74.6,131.3,74.8z M117.9,63.2c0-0.5,0-1.2-0.1-1.9c-0.1-0.7-0.3-1.4-0.5-2c-0.2-0.6-0.6-1.2-1.1-1.6
		c-0.5-0.4-1.1-0.6-1.9-0.6c-1.3,0-2.4,0.6-3.3,1.8c-0.8,1.2-1.5,2.7-2,4.3c-0.5,1.7-0.8,3.4-0.9,5.1c-0.1,1.8-0.2,3.1-0.2,4.1
		c0,0.8,0,1.7,0.1,2.8c0.1,1.1,0.2,2.1,0.4,3.1c0.2,1,0.5,1.8,0.8,2.4c0.4,0.7,0.8,1,1.4,1c1.4,0,2.5-0.5,3.2-1.6
		c0.7-1.1,1.3-2.4,1.7-4c0.4-1.6,0.7-3.3,0.8-5.2c0.2-1.8,0.3-3.5,0.5-5.1c0.1-0.8,0.3-1.3,0.6-1.5c0.3-0.2,0.5-0.4,0.5-0.5V63.2z"
		/>
	<path class="st0" d="M150.3,72.5c0,0.3-0.1,1.1-0.3,2.4c-0.2,1.3-0.6,2.6-1.2,4c-0.6,1.4-1.3,2.7-2.2,3.8c-0.9,1.1-2.1,1.7-3.6,1.7
		c-1.5,0-2.8-0.5-3.7-1.6c-0.9-1.1-1.6-2.4-2.1-3.9c-0.5-1.5-0.8-3.1-0.9-4.8c-0.1-1.7-0.2-3-0.2-4.1c0-1.2,0.1-2.5,0.2-3.8
		c0.1-1.3,0.2-2.5,0.3-3.8c0-0.4-0.2-0.6-0.6-0.7c-0.4-0.1-0.7-0.1-1.1-0.1c-0.6,0-0.9,0.1-1.1,0.2c-0.1,0.1-0.2,0.3-0.3,0.5
		l-0.3,2.3c-0.2,1.5-0.4,3-0.6,4.4c-0.2,1.4-0.5,2.7-0.7,3.7c-0.3,1.1-0.6,1.9-0.9,2.6s-0.8,1-1.3,1h-0.1c-0.2,0-0.4,0-0.5-0.1
		c-0.2-0.1-0.3-0.3-0.3-0.7c0-0.2,0-0.5,0.1-0.9c0.4-1.7,0.6-3.1,0.7-4.2c0.1-1.1,0.2-2.1,0.2-3V67c0-0.2,0-0.5,0-0.9
		c0-0.3,0-0.7,0-1.2V63c0-0.5,0-1.1,0-1.7s0-1.2-0.1-1.9l-0.2-4.2c0-0.3,0.1-0.6,0.4-0.8c0.2-0.2,0.6-0.5,0.9-0.6
		c0.4-0.2,0.8-0.3,1.2-0.4c0.4-0.1,0.8-0.1,1.2-0.1c0.8,0,1.2,0.5,1.2,1.6v0.4l-0.1,1.6v0.4c0,0.3,0.1,0.5,0.2,0.6
		c0.1,0.1,0.4,0.2,0.9,0.3h0.2c0.4,0,1,0.1,1.9,0.1c0.9,0,1.7,0.1,2.6,0.3c0.9,0.1,1.6,0.4,2.3,0.7c0.6,0.3,1,0.8,1,1.3
		c0,0.2,0,0.5-0.1,0.8c-0.1,0.4-0.2,0.7-0.4,1.1c-0.1,0.4-0.3,0.7-0.4,1c-0.1,0.3-0.1,0.5-0.1,0.6c-0.9,3.3-1.3,6.8-1.3,10.4
		c0,0.3,0,0.8,0.1,1.6c0,0.8,0.1,1.6,0.3,2.4c0.1,0.8,0.4,1.5,0.6,2.2c0.3,0.6,0.6,0.9,1.1,0.9c0.7,0,1.4-0.4,1.9-1.3
		c0.6-0.9,1.1-1.9,1.5-3.1c0.4-1.2,0.8-2.4,1-3.6c0.3-1.2,0.4-2.1,0.5-2.7c0.1-0.5,0.3-0.9,0.5-1c0.2-0.1,0.4-0.2,0.6-0.2
		c0.7,0,1,0.4,1,1.3c0,0.1,0,0.3,0,0.8C150.4,72.1,150.4,72.4,150.3,72.5z"/>
	<path class="st0" d="M176.8,74.8c-0.1,0.7-0.3,1.5-0.7,2.4c-0.4,0.9-0.9,1.8-1.5,2.6c-0.6,0.8-1.3,1.5-2.1,2.1
		c-0.8,0.6-1.7,0.9-2.6,0.9c-1.4,0-2.7-0.6-3.8-1.7c-1.1-1.1-1.7-2.7-2-4.7c-0.3,0.8-0.6,1.7-1,2.7c-0.4,1-0.9,1.9-1.4,2.8
		c-0.6,0.9-1.2,1.6-2,2.2c-0.7,0.6-1.6,0.9-2.6,0.9c-0.3,0-0.5,0-0.6-0.1c-0.1,0-0.3-0.1-0.5-0.2c-0.2-0.1-0.4-0.1-0.6-0.2
		c-0.2,0-0.5-0.1-0.9-0.1c-1.2,0-2.1-0.4-2.9-1.1c-0.8-0.7-1.4-1.7-1.9-2.8c-0.5-1.2-0.8-2.4-1-3.8c-0.2-1.4-0.3-2.7-0.3-3.9
		c0-2.9,0.2-5.6,0.5-8.2c0.3-2.6,0.8-4.9,1.5-6.9c0.7-2,1.7-3.6,2.8-4.8c1.2-1.2,2.5-1.8,4.2-1.8c1,0,1.7,0.1,2.2,0.3
		c0.5,0.2,1,0.4,1.4,0.6c0.4,0.2,0.9,0.4,1.4,0.7c0.5,0.2,1.2,0.4,2.1,0.6c1,0.6,1.7,1.3,2.1,2.1c0.4,0.8,0.7,1.6,0.8,2.6
		c0.1,0.9,0.2,1.9,0.1,2.8c0,1,0,2,0.1,2.9c0,0,0.1,0.1,0.3,0.2c0.2,0.1,0.5,0.2,0.8,0.3c0.3,0.1,0.5,0.3,0.8,0.5
		c0.2,0.2,0.3,0.5,0.3,0.8V66c-0.5,1.2-0.8,2.4-0.9,3.3c-0.1,1-0.1,2.1-0.1,3.5c0,0.7,0,1.4,0.1,2.2c0.1,0.8,0.2,1.5,0.4,2.2
		c0.2,0.7,0.4,1.3,0.8,1.7c0.3,0.5,0.8,0.7,1.3,0.7c0.6,0,1.1-0.3,1.5-0.9c0.5-0.6,0.8-1.2,1.2-2c0.3-0.7,0.6-1.5,0.8-2.3
		c0.2-0.8,0.3-1.3,0.4-1.7c0.1-0.6,0.3-0.9,0.7-0.9c0.2,0,0.5,0.1,0.7,0.4c0.2,0.3,0.3,0.7,0.3,1.4c0,0.2,0,0.4,0,0.5
		C176.8,74.4,176.8,74.6,176.8,74.8z M163.4,63.2c0-0.5,0-1.2-0.1-1.9c-0.1-0.7-0.3-1.4-0.5-2c-0.2-0.6-0.6-1.2-1.1-1.6
		c-0.5-0.4-1.1-0.6-1.9-0.6c-1.3,0-2.4,0.6-3.3,1.8c-0.8,1.2-1.5,2.7-2,4.3c-0.5,1.7-0.8,3.4-0.9,5.1c-0.1,1.8-0.2,3.1-0.2,4.1
		c0,0.8,0,1.7,0.1,2.8c0.1,1.1,0.2,2.1,0.4,3.1c0.2,1,0.5,1.8,0.8,2.4c0.4,0.7,0.8,1,1.4,1c1.4,0,2.5-0.5,3.2-1.6
		c0.7-1.1,1.3-2.4,1.7-4c0.4-1.6,0.7-3.3,0.8-5.2c0.2-1.8,0.3-3.5,0.5-5.1c0.1-0.8,0.3-1.3,0.6-1.5c0.3-0.2,0.5-0.4,0.5-0.5V63.2z"
		/>
	<path class="st0" d="M184,49.4c0,0.3-0.2,0.6-0.5,0.8c-0.3,0.2-0.7,0.4-1.1,0.5c-0.4,0.1-0.8,0.2-1.2,0.2c-0.4,0-0.6,0.1-0.7,0.1
		c-1,0-2-0.3-3-0.9c-1-0.6-1.9-1.5-2.7-2.7c-0.1-0.1-0.2-0.3-0.4-0.6c-0.2-0.2-0.3-0.4-0.3-0.5c0-0.2,0.2-0.5,0.5-0.6
		c0.4-0.2,0.8-0.4,1.2-0.6c0.5-0.2,0.9-0.3,1.3-0.4c0.4-0.1,0.7-0.1,0.8-0.1c1,0,1.9,0.2,2.8,0.7c0.9,0.5,1.7,1.4,2.3,2.7
		c0.1,0.1,0.3,0.4,0.5,0.8C183.9,49,184,49.2,184,49.4z M191.4,71.2c-0.1,1.2-0.4,2.4-0.8,3.6c-0.4,1.2-0.9,2.4-1.6,3.5
		c-0.7,1.1-1.6,2-2.6,2.7c-1.1,0.7-2.4,1-3.9,1c-1.2,0-2.4-0.4-3.7-1.2c-1.2-0.9-2.1-2-2.6-3.4c-0.5-1.4-0.7-2.7-0.7-4
		c0-0.4,0-1,0.1-1.7c0-0.8,0.1-1.7,0.1-2.8v-7.9c0-0.4,0-0.8,0-1.2c0-0.4-0.1-0.8-0.2-1.2c0-0.2-0.1-0.4-0.3-0.6
		c-0.1-0.2-0.2-0.4-0.2-0.5c0-0.2,0.1-0.3,0.4-0.5c0.2-0.1,0.5-0.2,0.8-0.3c0.3,0,0.7-0.1,1.2-0.1c0.1,0,0.5,0,1,0
		c0.5,0,1.1,0.1,1.7,0.3s1.1,0.4,1.5,0.7c0.5,0.3,0.7,0.8,0.7,1.3c0,0.1,0,0.4-0.3,0.8c-0.2,0.4-0.4,1.1-0.6,2c0,0.4-0.1,0.7-0.1,1
		c0,0.3-0.1,0.7-0.1,1c0,0.4-0.1,0.9-0.1,1.4c0,0.6-0.1,1.3-0.1,2.1v4.3c0,0.8,0,1.5,0.1,2.3c0,0.8,0.2,1.5,0.3,2.2
		c0.2,0.6,0.4,1.2,0.8,1.6c0.4,0.4,0.9,0.6,1.5,0.6c0.9,0,1.6-0.3,2.2-0.8c0.5-0.5,0.9-1,1.2-1.4c0.5-0.7,0.9-1.6,1.2-2.7
		c0.3-1.1,0.6-2.2,0.8-3.3l0.1-0.7c0.1-0.7,0.6-1.1,1.3-1.1c0.7,0,1.1,0.5,1.1,1.5v0.4L191.4,71.2z"/>
	<path class="st0" d="M209.6,68.9c0,2-0.2,3.9-0.5,5.7c-0.4,1.8-0.9,3.4-1.6,4.7c-0.7,1.3-1.6,2.4-2.7,3.2c-1.1,0.8-2.4,1.2-3.8,1.2
		c-1.3,0-2.4-0.3-3.3-0.8c-0.9-0.5-1.4-1.4-1.4-2.6c0-0.5,0.2-0.9,0.5-1.2c0.4-0.3,0.7-0.4,1-0.4c0.4,0,0.7,0.1,0.8,0.3
		c0.2,0.2,0.3,0.5,0.5,0.7c0.2,0.3,0.4,0.5,0.6,0.7c0.2,0.2,0.6,0.3,1,0.3c0.8,0,1.5-0.4,1.9-1.2c0.5-0.8,0.8-1.7,1-2.9
		c0.2-1.2,0.4-2.4,0.5-3.7c0.1-1.3,0.1-2.6,0.1-3.7v-3.3c0-0.7,0-1.5-0.1-2.4c0-0.9-0.2-1.8-0.4-2.7c-0.2-0.8-0.5-1.6-0.9-2.2
		c-0.4-0.6-0.9-0.9-1.6-0.9c-1,0-1.9,0.7-2.6,2.2c-0.7,1.5-1.4,3.3-1.8,5.5c-0.5,2.2-0.8,4.7-1,7.4c-0.2,2.7-0.3,5.3-0.3,7.8v6.4
		c0,1,0.1,1.8,0.1,2.5c0,0.7,0.1,1.4,0.2,2c0.1,0.6,0.2,1.2,0.3,1.8c0.1,0.6,0.3,1.3,0.5,2.1c0,0.1,0.2,0.3,0.5,0.4
		c0.3,0.1,0.5,0.3,0.5,0.7c0,0.4-0.1,0.7-0.4,0.9c-0.3,0.2-0.6,0.4-1,0.5c-0.4,0.1-0.9,0.2-1.3,0.2c-0.5,0-0.9,0-1.3,0h-1
		c-0.6,0-1.2-0.1-1.7-0.3c-0.6-0.2-0.9-0.6-0.9-1.3V54.5c0-1-0.1-1.7-0.3-2.3c0-0.2-0.1-0.4-0.1-0.5c0-0.2-0.1-0.3-0.1-0.5
		c0-0.1,0.1-0.2,0.4-0.4c0.3-0.1,0.6-0.3,0.9-0.4c0.3-0.1,0.7-0.3,1-0.4c0.3-0.1,0.5-0.1,0.5-0.1c0.8,0,1.5,0.3,1.9,0.8
		c0.5,0.5,0.7,1.6,0.7,3.1v10c0.3-0.7,0.6-1.6,0.8-2.7c0.3-1.1,0.6-2.2,1.1-3.3c0.5-1.1,1.2-2,2-2.8c0.8-0.8,1.9-1.2,3.2-1.2
		c1.5,0,2.8,0.5,3.8,1.5c1,1,1.8,2.3,2.4,3.7c0.6,1.5,1,3,1.3,4.7c0.2,1.7,0.4,3.1,0.4,4.4V68.9z"/>
	<path class="st0" d="M233.6,71.6c0,1.2-0.2,2.5-0.6,4c-0.4,1.5-1.1,2.9-2,4.1c-0.9,1.3-2.1,2.3-3.5,3.2c-1.4,0.9-3.1,1.3-5.1,1.3
		c-1.9,0-3.5-0.3-4.8-1c-1.3-0.7-2.4-1.6-3.2-2.7c-0.8-1.2-1.4-2.5-1.8-4.1c-0.4-1.6-0.5-3.2-0.5-4.9c0-1.7,0.2-3.5,0.6-5.5
		c0.4-2,1-3.9,1.8-5.7c0.8-1.8,1.8-3.2,3.1-4.4c1.2-1.2,2.8-1.8,4.5-1.8c0.9,0,1.7,0.2,2.4,0.5c0.8,0.4,1.4,0.8,2,1.4
		c0.6,0.6,1,1.2,1.4,2c0.3,0.8,0.5,1.6,0.6,2.4l0.1,1c0,1.2-0.2,2.4-0.6,3.8c-0.4,1.4-0.9,2.6-1.7,3.8c-0.7,1.2-1.6,2.2-2.7,3
		c-1.1,0.8-2.3,1.2-3.6,1.2c-0.2,0-0.5,0-0.9-0.1c-0.4,0-0.7-0.1-1-0.2v2.1c0,0.3,0.1,0.8,0.3,1.4c0.2,0.6,0.5,1.2,1,1.8
		c0.4,0.6,1,1.1,1.7,1.6c0.7,0.5,1.5,0.7,2.6,0.7c1.4,0,2.5-0.3,3.4-0.8c0.9-0.6,1.6-1.3,2.2-2.1c0.6-0.9,1-1.8,1.3-2.9
		c0.3-1.1,0.6-2.1,0.8-3.1c0.1-0.7,0.3-1.1,0.4-1.4c0.1-0.2,0.4-0.4,0.7-0.4c0.7,0,1.1,0.4,1.1,1.2V71.6z M225.1,60.4
		c0-0.4-0.1-0.8-0.3-1.2c-0.2-0.4-0.6-0.6-1.2-0.6c-0.9,0-1.6,0.5-2.2,1.4c-0.6,0.9-1.1,2-1.5,3.1c-0.4,1.2-0.7,2.3-0.9,3.4
		c-0.2,1.1-0.3,1.8-0.3,2.1v0.2c0,0.4,0,0.8,0.1,1c0.1,0.3,0.3,0.4,0.8,0.4h0.4c1,0,1.8-0.4,2.4-1.1c0.7-0.7,1.2-1.6,1.6-2.6
		c0.4-1,0.7-2,0.9-3.1c0.2-1.1,0.3-1.9,0.3-2.6V60.4z"/>
	<path class="st0" d="M261.3,70.4c-0.1,1.1-0.3,2.3-0.6,3.6c-0.3,1.3-0.8,2.6-1.4,3.8c-0.6,1.2-1.4,2.2-2.4,3
		c-1,0.8-2.2,1.2-3.6,1.2c-2.1,0-3.6-0.5-4.5-1.4c-0.9-1-1.7-2.4-2.3-4.5l-0.1,0.4c-0.2,0.8-0.4,1.6-0.7,2.5
		c-0.3,0.9-0.6,1.7-1.1,2.5c-0.5,0.7-1,1.4-1.7,1.9c-0.7,0.5-1.5,0.8-2.6,0.8c-0.7,0-1.4-0.1-2.1-0.4c-0.7-0.3-1.4-0.6-2.2-1
		c-1.1-0.6-2-1.3-2.6-2.3c-0.6-1-1.1-1.9-1.4-3c-0.3-1-0.5-2-0.5-2.9c0-0.9-0.1-1.7-0.1-2.2v-1.2c0-0.3,0.1-0.9,0.2-1.9
		c0.1-1,0.4-2.1,0.7-3.3c0.3-1.3,0.7-2.6,1.2-4c0.5-1.4,1-2.7,1.7-3.8c0.6-1.2,1.4-2.1,2.2-2.9c0.8-0.8,1.8-1.2,2.8-1.2
		c1.2,0,2.3,0.2,3.3,0.6c1.1,0.4,1.9,0.7,2.3,0.9c0-0.9,0.1-1.9,0.1-3.2c0-1.2,0-2.5,0.1-3.7c0-1.2,0-2.4,0-3.4c0-1.1,0-1.8,0-2.4
		c0-1.2,0-2.3-0.1-3.2c0-0.9-0.1-1.6-0.3-2.3c-0.1-0.6-0.3-1.1-0.4-1.5c-0.1-0.4-0.3-0.7-0.5-1c0.8-0.2,1.6-0.4,2.4-0.5
		c0.8-0.1,1.5-0.1,2.2-0.1c1.1,0,2,0.1,2.6,0.3c0.6,0.2,0.9,0.6,0.9,1.3c0,0.3-0.1,1.1-0.2,2.5c-0.1,1.4-0.3,3.2-0.4,5.4
		c-0.1,2.2-0.3,4.8-0.4,7.7c-0.1,2.9-0.2,6-0.2,9.4v7.3c0,1.3,0,2.6,0.1,3.9c0,1.2,0.2,2.3,0.3,3.2c0.2,0.9,0.4,1.7,0.8,2.2
		c0.3,0.6,0.8,0.8,1.4,0.8c1.4,0,2.4-0.8,3.1-2.4c0.7-1.6,1.3-4.1,1.7-7.6c0-0.4,0.1-0.7,0.3-1s0.5-0.4,0.9-0.4
		c0.4,0,0.7,0.3,0.8,0.8c0.1,0.6,0.2,1.1,0.1,1.6L261.3,70.4z M246.1,59.9c0-0.1-0.1-0.3-0.3-0.5c-0.2-0.2-0.5-0.4-0.8-0.6
		c-0.3-0.2-0.6-0.4-1-0.5s-0.6-0.2-0.9-0.2c-1,0-1.8,0.6-2.5,1.8c-0.7,1.2-1.4,2.6-1.9,4.4s-0.9,3.6-1.1,5.5c-0.2,2-0.4,3.7-0.4,5.3
		c0,0.6,0,1.2,0.1,2c0,0.8,0.2,1.5,0.4,2.2c0.2,0.7,0.5,1.2,0.8,1.7c0.3,0.5,0.8,0.7,1.4,0.7c0.6,0,1.2-0.4,1.7-1.1
		c0.5-0.7,1-1.7,1.4-2.8s0.8-2.4,1.2-3.9c0.4-1.4,0.7-2.9,0.9-4.3c0.3-1.4,0.5-2.8,0.6-4c0.1-1.3,0.2-2.3,0.3-3.1L246.1,59.9z"/>
	<path class="st0" d="M268.3,49.4c0,0.3-0.2,0.6-0.5,0.8c-0.3,0.2-0.7,0.4-1.1,0.5c-0.4,0.1-0.8,0.2-1.2,0.2c-0.4,0-0.6,0.1-0.7,0.1
		c-1,0-2-0.3-3-0.9c-1-0.6-1.9-1.5-2.7-2.7c-0.1-0.1-0.2-0.3-0.4-0.6c-0.2-0.2-0.3-0.4-0.3-0.5c0-0.2,0.2-0.5,0.5-0.6
		c0.4-0.2,0.8-0.4,1.2-0.6c0.5-0.2,0.9-0.3,1.3-0.4c0.4-0.1,0.7-0.1,0.8-0.1c1,0,1.9,0.2,2.8,0.7c0.9,0.5,1.7,1.4,2.3,2.7
		c0.1,0.1,0.3,0.4,0.5,0.8C268.2,49,268.3,49.2,268.3,49.4z M275.7,71.2c-0.1,1.2-0.4,2.4-0.8,3.6c-0.4,1.2-0.9,2.4-1.6,3.5
		c-0.7,1.1-1.6,2-2.6,2.7c-1.1,0.7-2.4,1-3.9,1c-1.2,0-2.4-0.4-3.7-1.2c-1.2-0.9-2.1-2-2.6-3.4c-0.5-1.4-0.7-2.7-0.7-4
		c0-0.4,0-1,0.1-1.7c0-0.8,0.1-1.7,0.1-2.8v-7.9c0-0.4,0-0.8,0-1.2c0-0.4-0.1-0.8-0.2-1.2c0-0.2-0.1-0.4-0.3-0.6
		c-0.1-0.2-0.2-0.4-0.2-0.5c0-0.2,0.1-0.3,0.4-0.5c0.2-0.1,0.5-0.2,0.8-0.3c0.3,0,0.7-0.1,1.2-0.1c0.1,0,0.5,0,1,0
		c0.5,0,1.1,0.1,1.7,0.3s1.1,0.4,1.5,0.7c0.5,0.3,0.7,0.8,0.7,1.3c0,0.1,0,0.4-0.3,0.8c-0.2,0.4-0.4,1.1-0.6,2c0,0.4-0.1,0.7-0.1,1
		c0,0.3-0.1,0.7-0.1,1c0,0.4-0.1,0.9-0.1,1.4c0,0.6-0.1,1.3-0.1,2.1v4.3c0,0.8,0,1.5,0.1,2.3c0,0.8,0.2,1.5,0.3,2.2
		c0.2,0.6,0.4,1.2,0.8,1.6c0.4,0.4,0.9,0.6,1.5,0.6c0.9,0,1.6-0.3,2.2-0.8c0.5-0.5,0.9-1,1.2-1.4c0.5-0.7,0.9-1.6,1.2-2.7
		c0.3-1.1,0.6-2.2,0.8-3.3l0.1-0.7c0.1-0.7,0.6-1.1,1.3-1.1c0.7,0,1.1,0.5,1.1,1.5v0.4L275.7,71.2z"/>
	<path class="st0" d="M301.9,74.8c-0.1,0.7-0.3,1.5-0.7,2.4c-0.4,0.9-0.9,1.8-1.5,2.6c-0.6,0.8-1.3,1.5-2.1,2.1
		c-0.8,0.6-1.7,0.9-2.6,0.9c-1.4,0-2.7-0.6-3.8-1.7c-1.1-1.1-1.7-2.7-2-4.7c-0.3,0.8-0.6,1.7-1,2.7c-0.4,1-0.9,1.9-1.4,2.8
		c-0.6,0.9-1.2,1.6-2,2.2c-0.7,0.6-1.6,0.9-2.6,0.9c-0.3,0-0.5,0-0.6-0.1c-0.1,0-0.3-0.1-0.5-0.2c-0.2-0.1-0.4-0.1-0.6-0.2
		c-0.2,0-0.5-0.1-0.9-0.1c-1.2,0-2.1-0.4-2.9-1.1c-0.8-0.7-1.4-1.7-1.9-2.8c-0.5-1.2-0.8-2.4-1-3.8c-0.2-1.4-0.3-2.7-0.3-3.9
		c0-2.9,0.2-5.6,0.5-8.2c0.3-2.6,0.8-4.9,1.5-6.9c0.7-2,1.7-3.6,2.8-4.8c1.2-1.2,2.5-1.8,4.2-1.8c1,0,1.7,0.1,2.2,0.3
		c0.5,0.2,1,0.4,1.4,0.6c0.4,0.2,0.9,0.4,1.4,0.7c0.5,0.2,1.2,0.4,2.1,0.6c1,0.6,1.7,1.3,2.1,2.1c0.4,0.8,0.7,1.6,0.8,2.6
		c0.1,0.9,0.2,1.9,0.1,2.8c0,1,0,2,0.1,2.9c0,0,0.1,0.1,0.3,0.2c0.2,0.1,0.5,0.2,0.8,0.3c0.3,0.1,0.5,0.3,0.8,0.5
		c0.2,0.2,0.3,0.5,0.3,0.8V66c-0.5,1.2-0.8,2.4-0.9,3.3c-0.1,1-0.1,2.1-0.1,3.5c0,0.7,0,1.4,0.1,2.2c0.1,0.8,0.2,1.5,0.4,2.2
		c0.2,0.7,0.4,1.3,0.8,1.7c0.3,0.5,0.8,0.7,1.3,0.7c0.6,0,1.1-0.3,1.5-0.9c0.5-0.6,0.8-1.2,1.2-2c0.3-0.7,0.6-1.5,0.8-2.3
		c0.2-0.8,0.3-1.3,0.4-1.7c0.1-0.6,0.3-0.9,0.7-0.9c0.2,0,0.5,0.1,0.7,0.4c0.2,0.3,0.3,0.7,0.3,1.4c0,0.2,0,0.4,0,0.5
		C302,74.4,301.9,74.6,301.9,74.8z M288.6,63.2c0-0.5,0-1.2-0.1-1.9c-0.1-0.7-0.3-1.4-0.5-2c-0.2-0.6-0.6-1.2-1.1-1.6
		c-0.5-0.4-1.1-0.6-1.9-0.6c-1.3,0-2.4,0.6-3.3,1.8c-0.8,1.2-1.5,2.7-2,4.3c-0.5,1.7-0.8,3.4-0.9,5.1c-0.1,1.8-0.2,3.1-0.2,4.1
		c0,0.8,0,1.7,0.1,2.8c0.1,1.1,0.2,2.1,0.4,3.1c0.2,1,0.5,1.8,0.8,2.4c0.4,0.7,0.8,1,1.4,1c1.4,0,2.5-0.5,3.2-1.6
		c0.7-1.1,1.3-2.4,1.7-4c0.4-1.6,0.7-3.3,0.8-5.2c0.2-1.8,0.3-3.5,0.5-5.1c0.1-0.8,0.3-1.3,0.6-1.5c0.3-0.2,0.5-0.4,0.5-0.5V63.2z"
		/>
</g>
</svg>
